/* XPM */
static char *icon[] = {
/* columns rows colors chars-per-pixel */
"32 32 97 2",
"   c #030303",
".  c #0B0A0A",
"X  c #100F0F",
"o  c #0F1111",
"O  c #141515",
"+  c #161819",
"@  c #1B1B1B",
"#  c #1B1E20",
"$  c #1F2224",
"%  c #232424",
"&  c #282727",
"*  c #232729",
"=  c #26292B",
"-  c #2B2C2B",
";  c #2F302F",
":  c #30322F",
">  c #292F32",
",  c #2D3335",
"<  c #2F3638",
"1  c #343533",
"2  c #373835",
"3  c #383A37",
"4  c #303638",
"5  c #353A3B",
"6  c #3C3D3B",
"7  c #3E403C",
"8  c #40403F",
"9  c #394042",
"0  c #444543",
"q  c #474846",
"w  c #484A46",
"e  c #424648",
"r  c #45494A",
"t  c #4B4C4B",
"y  c #4D504F",
"u  c #50534F",
"i  c #474E50",
"p  c #494E50",
"a  c #4E5152",
"s  c #4F5659",
"d  c #535552",
"f  c #565857",
"g  c #585957",
"h  c #545758",
"j  c #565B5A",
"k  c #5B5D5B",
"l  c #5F615D",
"z  c #61625F",
"x  c #5D6264",
"c  c #646563",
"v  c #666865",
"b  c #696B67",
"n  c #626768",
"m  c #63696B",
"M  c #6B6C6A",
"N  c #6F716C",
"B  c #70726F",
"V  c #666E70",
"C  c #6D7274",
"Z  c #737572",
"A  c #767974",
"S  c #797B76",
"D  c #727879",
"F  c #7B7D7A",
"G  c #7E827D",
"H  c #81837E",
"J  c #7F888C",
"K  c #838683",
"L  c #878985",
"P  c #888A86",
"I  c #81878A",
"U  c #8B8C8A",
"Y  c #8F918E",
"T  c #91928F",
"R  c #869399",
"E  c #8F9A9E",
"W  c #949592",
"Q  c #959995",
"!  c #9B9C9A",
"~  c #9EA19D",
"^  c #949EA1",
"/  c #A3A5A1",
"(  c #A6A8A4",
")  c #AAACA7",
"_  c #A9A9A9",
"`  c #B0AFB0",
"'  c #B3B3B3",
"]  c #B8B8B7",
"[  c #BCBCBC",
"{  c #C2C2C1",
"}  c #C8C9C8",
"|  c #D3D3D3",
" . c #DBDBDB",
".. c #E4E4E4",
"X. c #E8E8E9",
"o. c gray99",
"O. c None",
/* pixels */
"O.O.O.O.O.O.O.O.O.O.O.O.O.O.O.O.O.O.O.O.O.O.O.O.O.O.O.O.O.O.O.O.",
"O.O.O.O.O.O.O.O.O.O.O.O.O.O.O.O.O.O.O.O.O.O.O.O.O.O.O.O.O.O.O.O.",
"O.O.O.O.O.O.O.O.O.O.O.O.O.O.O.O.O.O.O.O.O.O.O.O.O.O.O.O.O.O.O.O.",
"O.O.O.O.O.O.O.O.O.O.O.O.O.O.O.O.'  . . . .| _ O.O.O.O.O.O.O.O.O.",
"O.O.O.O.O.O.O.O.O.O.O.O.O.O.O.O.| o.o.o.o.o.{ O.O.O.O.O.O.O.O.O.",
"O.O.O.O.O.O.O.O.O.O.O.O.O.O.O.O.} .. . . ...] O.O.O.O.O.O.O.O.O.",
"O.O.O.O.O.O.O.O.O.O.O.O.O.O.O.O.M W W W W W c O.O.O.O.O.O.O.O.O.",
"O.O.O.O.O.O.O.O.O.O.O.O.O.O.O.: - O.O.O.O.O.- 1 O.O.O.O.O.O.O.O.",
"O.O.O.O.O.O.O.O.O.O.O.O.O.O.O.O O O.O.O.O.O.O O O.O.O.O.O.O.O.O.",
"O.O.O.O.O.O.O.O.O.O.O.O.O.O.O.; b B B Z Z A z O O.O.O.O.O.O.O.O.",
"O.O.O.O.O.O.O.O.O.O.O.O.O.O.c Y c z v M B N F c & O.O.O.O.O.O.O.",
"O.O.O.O.O.& 2 0 g b Z F M F W A l v M N Z Z B B Z v c t % O.O.O.",
"O.O.& d F W ~ ( / ! ~ S Q / k Y / ~ ~ ~ ~ ~ / Q B A A H S 2 O.O.",
"O.1 T ( ! P v t b W P z X.o.A F d k z v b M M F G z M v H d O.O.",
"O.d ) H L S f 2 k ~ 3 0 _ ` M d j m m x s i y l K N k d Z y O.O.",
"O.t ~ ! W T P U ( k - 3 6 t k n R E I C n x s 9 f F v c S t O.O.",
"O.w Z N W ~ ! P d ; 1 2 3 g V ^ ^ n d d d a a j e j N c A t O.O.",
"O.q Z t u u w 7 3 1 1 2 7 k J D a h d t t a k t a p l v A t O.O.",
"O.q Z u d d t 0 6 1 1 2 6 m x r h - O o O % 5 e , r d c A t O.O.",
"O.q Z d d d t 0 6 1 1 2 0 x , 5 $         . % 4 , , a M Z t O.O.",
"O.0 B d d d t 0 6 1 1 2 t e , =   d F d % + + 1 5 , 6 L L q O.O.",
"O.0 B d d d t 0 6 1 1 2 r 5 < + X ! ' { ! 6 - - 0 , , k ! q O.O.",
"O.0 B d d d t 0 6 1 1 2 0 4 , O O M [ o.{ F q 1 t 4 > b W 0 O.O.",
"O.0 N d d d t 0 6 1 : 1 6 < < @   q { | ! W k 6 d 4 , c S q O.O.",
"O.0 N d d d t 0 6 2 w t t 4 < - . @ d P ! U g t j , , c S 0 O.O.",
"O.3 A k d u t 0 0 d t 8 8 4 , 5 % @ 1 d b v M c t , < t q O.O.O.",
"O.& q b M b c k f 6 O O.O.# 4 < 0 - & 1 0 w c x , 4 $ O.O.O.O.O.",
"O.O.O.& 1 3 3 1 @ O.O.O.O.O.> < 4 t a d k c h , < , O.O.O.O.O.O.",
"O.O.O.O.O.O.O.O.O.O.O.O.O.O.O., 4 , 5 e e 5 , 4 , O.O.O.O.O.O.O.",
"O.O.O.O.O.O.O.O.O.O.O.O.O.O.O.O.= < , , , < < * O.O.O.O.O.O.O.O.",
"O.O.O.O.O.O.O.O.O.O.O.O.O.O.O.O.O.O.O.O.$ O.O.O.O.O.O.O.O.O.O.O.",
"O.O.O.O.O.O.O.O.O.O.O.O.O.O.O.O.O.O.O.O.O.O.O.O.O.O.O.O.O.O.O.O."
};
